<?xml version="1.0"?>
<svg version="1.1" xmlns="http://www.w3.org/2000/svg" width="172px" height="36px" style=""><path fill="#ffffff" d="M26.814384765625,32.17431640625q0-0.0849609375,0.056640625-0.601806640625t0.148681640625-1.26025390625t0.205322265625-1.60009765625t0.1982421875-1.621337890625t0.148681640625-1.34521484375t0.063720703125-0.77880859375q-0.11328125-0.056640625-0.276123046875-0.162841796875t-0.162841796875-0.247802734375q0-0.1982421875,0.191162109375-0.318603515625t0.332763671875-0.177001953125q0.056640625-0.72216796875,0.1416015625-2.0107421875t0.261962890625-2.782470703125t0.49560546875-3.0302734375t0.842529296875-2.78955078125t1.26025390625-2.046142578125t1.8125-0.79296875t1.7841796875,0.6796875t1.154052734375,1.77001953125t0.6796875,2.42138671875t0.35400390625,2.64794921875t0.148681640625,2.4638671875t0.056640625,1.8408203125q0.0283203125,0.43896484375,0.21240234375,0.587646484375t0.403564453125,0.205322265625t0.396484375,0.12744140625t0.177001953125,0.35400390625q0,0.32568359375-0.396484375,0.453125t-0.623046875,0.15576171875q0.1416015625,1.77001953125,0.389404296875,3.4833984375t0.658447265625,3.455078125q0.056640625,0.32568359375,0.15576171875,0.658447265625t0.09912109375,0.644287109375q0,0.2265625-0.15576171875,0.375244140625t-0.403564453125,0.233642578125t-0.49560546875,0.11328125t-0.417724609375,0.0283203125q-0.63720703125,0-1.076171875-0.24072265625t-0.58056640625-0.92041015625q-0.38232421875-1.82666015625-0.75048828125-3.83740234375q-0.3115234375-1.74169921875-0.3115234375-3.38427734375q0-0.2548828125,0.01416015625-0.509765625q-1.189453125,0-2.39306640625,0.056640625t-2.30810546875,0.4248046875q-0.0283203125,0.38232421875-0.1416015625,1.4443359375t-0.2548828125,2.27978515625t-0.290283203125,2.329345703125t-0.177001953125,1.578857421875q-0.0283203125,0.1982421875-0.290283203125,0.375244140625t-0.56640625,0.191162109375t-0.5380859375-0.191162109375t-0.233642578125-0.729248046875z M29.462333984375,23.59326171875q1.1044921875-0.2548828125,2.216064453125-0.29736328125t2.244384765625-0.09912109375q-0.056640625-0.35400390625-0.0283203125-0.729248046875t0.0283203125-0.757568359375q0-0.83544921875-0.04248046875-1.93994140625t-0.12744140625-2.2373046875t-0.219482421875-2.230224609375t-0.304443359375-1.9541015625t-0.361083984375-1.366455078125t-0.417724609375-0.509765625q-0.43896484375,0.0283203125-0.828369140625,0.757568359375t-0.7080078125,1.85498046875t-0.58056640625,2.5205078125t-0.43896484375,2.725830078125t-0.290283203125,2.47802734375t-0.1416015625,1.7841796875z M41.083149414063,21.29931640625q0-0.1416015625,0.219482421875-0.24072265625t0.52392578125-0.1416015625t0.58056640625-0.07080078125t0.417724609375-0.0283203125q0.056640625-0.38232421875,0.162841796875-1.03369140625t0.261962890625-1.394775390625t0.389404296875-1.493896484375t0.56640625-1.359375t0.785888671875-0.998291015625t1.06201171875-0.389404296875l-0.0283203125,0q0.1982421875-0.0283203125,0.389404296875-0.04248046875t0.389404296875-0.01416015625q0.46728515625,0,1.012451171875,0.18408203125t1.012451171875,0.516845703125t0.785888671875,0.800048828125t0.318603515625,0.9912109375q0,0.41064453125-0.205322265625,0.885009765625t-0.715087890625,0.474365234375q-0.169921875,0-0.346923828125-0.0849609375t-0.332763671875-0.18408203125q0.056640625-0.32568359375,0.056640625-0.6513671875q0-0.169921875-0.01416015625-0.32568359375q-0.04248046875-0.49560546875-0.21240234375-0.870849609375t-0.488525390625-0.5947265625t-0.757568359375-0.162841796875q-0.58056640625,0.0849609375-0.870849609375,0.7080078125t-0.403564453125,1.479736328125t-0.1416015625,1.74169921875t-0.11328125,1.437255859375q0.66552734375,0.056640625,1.125732421875,0.056640625l1.154052734375,0q0.11328125,0,0.389404296875,0.01416015625t0.5380859375,0.056640625t0.46728515625,0.148681640625t0.205322265625,0.276123046875q0,0.1416015625-0.11328125,0.247802734375t-0.276123046875,0.148681640625t-0.33984375,0.056640625t-0.290283203125,0.01416015625q-0.49560546875,0-0.842529296875-0.04248046875t-0.66552734375-0.077880859375t-0.66552734375-0.035400390625t-0.814208984375,0.09912109375q-0.1416015625,1.57177734375-0.2265625,3.115234375t-0.0849609375,3.115234375q0,2.4638671875,0.15576171875,4.82861328125t0.56640625,4.80029296875q0.056640625,0.2265625,0.09912109375,0.516845703125t0.04248046875,0.559326171875q0,0.2548828125-0.15576171875,0.417724609375t-0.389404296875,0.233642578125t-0.4814453125,0.09912109375t-0.446044921875,0.0283203125q-0.80712890625,0-1.1328125-0.247802734375t-0.46728515625-0.998291015625q-0.35400390625-1.99658203125-0.453125-4.028564453125t-0.09912109375-4.099365234375q0-2.02490234375,0.148681640625-4.042724609375t0.375244140625-4.014404296875q-0.11328125,0-0.389404296875,0.01416015625t-0.55224609375,0t-0.4814453125-0.09912109375t-0.205322265625-0.29736328125z M51.528671875,26.87841796875q0-1.302734375,0.304443359375-2.555908203125t0.516845703125-2.499267578125q0.056640625-0.32568359375,0.446044921875-0.403564453125t0.658447265625-0.077880859375q0.46728515625,0,0.75048828125,0.1416015625q0.11328125,0.056640625,0.21240234375,0.12744140625t0.09912109375,0.18408203125q0,1.2177734375-0.290283203125,2.37890625t-0.290283203125,2.4638671875q0,0.43896484375,0.063720703125,0.828369140625t0.120361328125,0.771728515625l0.0849609375,0.41064453125q0,0.11328125,0.01416015625,0.1982421875t0.04248046875,0.1982421875q0,0.2548828125-0.361083984375,0.346923828125t-0.630126953125,0.092041015625q-0.41064453125,0-0.757568359375-0.162841796875t-0.545166015625-0.559326171875l-0.1982421875-0.41064453125q-0.169921875-0.32568359375-0.169921875-0.729248046875t-0.07080078125-0.743408203125z M52.434921875,18.35400390625l0-0.26904296875q0-0.66552734375,0.332763671875-1.189453125t0.998291015625-0.52392578125q0.0849609375,0,0.162841796875,0.01416015625t0.162841796875,0.01416015625q0.169921875,0.0283203125,0.446044921875,0.134521484375t0.276123046875,0.332763671875l0,0.0283203125q-0.056640625,0.11328125-0.07080078125,0.233642578125t-0.07080078125,0.205322265625l0.0283203125-0.0283203125q-0.169921875,0.43896484375-0.276123046875,0.7080078125t-0.233642578125,0.431884765625t-0.318603515625,0.233642578125t-0.545166015625,0.07080078125q-0.056640625,0-0.1982421875-0.01416015625t-0.304443359375-0.056640625t-0.276123046875-0.11328125t-0.11328125-0.21240234375z M57.711987304687,32.96728515625l0.29736328125-0.35400390625q-0.056640625-2.37890625-0.12744140625-4.74365234375t-0.07080078125-4.701171875q0-2.90283203125,0.346923828125-5.614501953125t0.686767578125-5.557861328125q0.0283203125-0.169921875,0.162841796875-0.276123046875t0.332763671875-0.177001953125t0.403564453125-0.09912109375t0.375244140625-0.0283203125q0.2265625,0,0.56640625,0.0849609375t0.6796875,0.49560546875q0,0.1416015625,0.021240234375,0.247802734375t0.021240234375,0.247802734375q0,1.076171875-0.290283203125,2.30810546875t-0.389404296875,2.36474609375q-0.11328125,1.3876953125-0.15576171875,2.7470703125t-0.04248046875,2.76123046875l0.0283203125,1.24609375q0.283203125-0.35400390625,0.80712890625-0.90625t1.1328125-1.069091796875t1.2177734375-0.885009765625t1.1044921875-0.3681640625q0.75048828125,0,1.040771484375,0.4248046875t0.290283203125,1.11865234375q0,0.63720703125-0.276123046875,1.3310546875t-0.72216796875,1.352294921875t-1.012451171875,1.182373046875t-1.11865234375,0.77880859375q0.75048828125,0.9345703125,1.536376953125,1.7841796875t1.720458984375,1.60009765625l0,0.32568359375q-0.0283203125,0.1416015625-0.177001953125,0.21240234375t-0.32568359375,0.11328125t-0.346923828125,0.063720703125t-0.283203125,0.021240234375q-0.69384765625,0-1.338134765625-0.41064453125t-1.20361328125-1.00537109375t-1.054931640625-1.26025390625t-0.90625-1.1611328125q0.0849609375,1.62841796875,0.191162109375,3.249755859375t0.106201171875,3.249755859375q0,0.1982421875-0.177001953125,0.332763671875t-0.41064453125,0.205322265625t-0.474365234375,0.09912109375t-0.396484375,0.0283203125q-0.83544921875,0-1.182373046875-0.304443359375t-0.587646484375-1.054931640625z M60.614819335937,26.2978515625q0.35400390625,0,0.842529296875-0.304443359375t1.012451171875-0.757568359375t0.97705078125-0.955810546875t0.729248046875-0.955810546875t0.276123046875-0.729248046875t-0.38232421875-0.247802734375q-0.1416015625,0-0.58056640625,0.41064453125t-0.97705078125,1.00537109375t-1.076171875,1.28857421875t-0.8212890625,1.24609375z M73.831059570312,12.35009765625q0-0.1982421875,0.276123046875-0.304443359375t0.361083984375-0.106201171875l0.52392578125-0.0849609375q0.52392578125-0.0849609375,1.06201171875-0.148681640625t1.0478515625-0.120361328125q1.79833984375-0.2265625,3.5966796875-0.446044921875t3.625-0.219482421875q0.1416015625,0,0.389404296875,0.01416015625t0.49560546875,0.077880859375t0.4248046875,0.177001953125t0.177001953125,0.3115234375q0,0.1416015625-0.134521484375,0.247802734375t-0.318603515625,0.162841796875t-0.375244140625,0.07080078125t-0.304443359375,0.01416015625l-0.247802734375,0t-0.247802734375-0.056640625q-0.75048828125,0-1.479736328125,0.07080078125t-1.479736328125,0.12744140625q0.1982421875,0.2265625,0.21240234375,0.63720703125t0.0283203125,0.7080078125q0,5.0126953125,0.07080078125,9.96875t0.12744140625,10.01123046875l0,0.0283203125q-0.46728515625,0.41064453125-0.800048828125,0.52392578125t-0.672607421875,0.11328125q-0.32568359375,0-0.658447265625-0.120361328125t-0.800048828125-0.516845703125l0-0.0283203125l0.11328125-11.11572265625q0-1.1044921875-0.0283203125-2.435546875t-0.0283203125-2.697509765625t0.04248046875-2.640869140625t0.2265625-2.22314453125q-0.83544921875,0.0849609375-1.77001953125,0.2548828125q-0.80712890625,0.1416015625-1.54345703125,0.1416015625l-0.2548828125,0q-0.056640625,0-0.332763671875,0.01416015625t-0.56640625-0.01416015625t-0.52392578125-0.11328125t-0.233642578125-0.283203125z M87.83078125,27.21826171875q0-0.962890625,0.261962890625-1.85498046875t0.785888671875-1.593017578125t1.309814453125-1.11865234375t1.819580078125-0.417724609375q0.63720703125,0,1.408935546875,0.191162109375t1.451416015625,0.56640625t1.1328125,0.955810546875t0.453125,1.3310546875q0,0.35400390625-0.120361328125,0.5380859375t-0.488525390625,0.18408203125l-0.15576171875-0.0283203125q0.41064453125,1.1044921875,0.7080078125,2.265625t0.58056640625,2.322265625q0.11328125,0.2265625,0.169921875,0.403564453125t0.056640625,0.346923828125q0,0.2265625-0.12744140625,0.375244140625t-0.332763671875,0.219482421875t-0.4248046875,0.09912109375t-0.389404296875,0.0283203125q-0.60888671875,0-0.913330078125-0.21240234375t-0.43896484375-0.58056640625t-0.162841796875-0.828369140625t-0.11328125-0.927490234375q-0.169921875,0.55224609375-0.446044921875,1.076171875t-0.6513671875,0.941650390625t-0.885009765625,0.66552734375t-1.14697265625,0.247802734375q-0.9345703125,0-1.57177734375-0.5380859375t-1.026611328125-1.323974609375t-0.56640625-1.677978515625t-0.177001953125-1.65673828125z M89.8415234375,27.02001953125q0,0.52392578125,0.07080078125,1.1044921875t0.233642578125,1.14697265625t0.417724609375,1.069091796875t0.63720703125,0.885009765625q0.69384765625-0.75048828125,1.026611328125-1.82666015625t0.5947265625-2.074462890625t0.5947265625-1.71337890625t1.026611328125-0.715087890625q0.43896484375,0,0.736328125,0.15576171875q-0.1416015625-0.35400390625-0.46728515625-0.686767578125t-0.729248046875-0.60888671875t-0.83544921875-0.453125t-0.814208984375-0.177001953125q-0.11328125,0-0.261962890625,0.035400390625t-0.233642578125,0.007080078125q-0.58056640625,0.169921875-0.955810546875,0.587646484375t-0.60888671875,0.984130859375t-0.332763671875,1.1611328125t-0.09912109375,1.11865234375z M100.10296386719,28.76171875l0-1.3310546875q0-0.72216796875,0.035400390625-2.046142578125t0.092041015625-2.90283203125t0.15576171875-3.292236328125t0.2265625-3.235595703125t0.304443359375-2.725830078125t0.403564453125-1.7841796875q0.1416015625-0.32568359375,0.46728515625-0.41064453125t0.63720703125-0.0849609375q0.49560546875,0,0.870849609375,0.219482421875t0.375244140625,0.800048828125l-0.2548828125,0.283203125q-0.49560546875,3.27099609375-0.63720703125,6.5703125t-0.1982421875,6.5986328125q0.35400390625-0.55224609375,0.800048828125-1.083251953125t0.9912109375-0.941650390625t1.17529296875-0.658447265625t1.380615234375-0.247802734375q0.962890625,0,1.593017578125,0.58056640625t1.040771484375,1.508056640625t0.60888671875,2.074462890625t0.304443359375,2.2939453125t0.148681640625,2.173583984375t0.12744140625,1.706298828125q-0.26904296875,0.3681640625-0.79296875,0.3681640625l-0.04248046875,0q-0.2265625,0-0.49560546875-0.056640625t-0.35400390625-0.283203125l0.0283203125,0.0283203125q-0.1982421875-0.43896484375-0.26904296875-1.267333984375t-0.11328125-1.82666015625t-0.148681640625-2.046142578125t-0.318603515625-1.8974609375t-0.623046875-1.40185546875t-1.1044921875-0.58056640625l-0.0849609375,0q-0.83544921875,0-1.40185546875,0.509765625q-0.5947265625,0.5380859375-0.962890625,1.416015625t-0.56640625,1.9541015625t-0.304443359375,2.074462890625t-0.162841796875,1.8125t-0.1416015625,1.196533203125q-0.0849609375,0.32568359375-0.502685546875,0.431884765625t-0.715087890625,0.106201171875q-0.69384765625,0-1.1328125-0.396484375q-0.32568359375-0.77880859375-0.38232421875-1.93994140625t-0.056640625-2.265625z M113.64956054687,26.87841796875q0-1.302734375,0.304443359375-2.555908203125t0.516845703125-2.499267578125q0.056640625-0.32568359375,0.446044921875-0.403564453125t0.658447265625-0.077880859375q0.46728515625,0,0.75048828125,0.1416015625q0.11328125,0.056640625,0.21240234375,0.12744140625t0.09912109375,0.18408203125q0,1.2177734375-0.290283203125,2.37890625t-0.290283203125,2.4638671875q0,0.43896484375,0.063720703125,0.828369140625t0.120361328125,0.771728515625l0.0849609375,0.41064453125q0,0.11328125,0.01416015625,0.1982421875t0.04248046875,0.1982421875q0,0.2548828125-0.361083984375,0.346923828125t-0.630126953125,0.092041015625q-0.41064453125,0-0.757568359375-0.162841796875t-0.545166015625-0.559326171875l-0.1982421875-0.41064453125q-0.169921875-0.32568359375-0.169921875-0.729248046875t-0.07080078125-0.743408203125z M114.55581054687,18.35400390625l0-0.26904296875q0-0.66552734375,0.332763671875-1.189453125t0.998291015625-0.52392578125q0.0849609375,0,0.162841796875,0.01416015625t0.162841796875,0.01416015625q0.169921875,0.0283203125,0.446044921875,0.134521484375t0.276123046875,0.332763671875l0,0.0283203125q-0.056640625,0.11328125-0.07080078125,0.233642578125t-0.07080078125,0.205322265625l0.0283203125-0.0283203125q-0.169921875,0.43896484375-0.276123046875,0.7080078125t-0.233642578125,0.431884765625t-0.318603515625,0.233642578125t-0.545166015625,0.07080078125q-0.056640625,0-0.1982421875-0.01416015625t-0.304443359375-0.056640625t-0.276123046875-0.11328125t-0.11328125-0.21240234375z M119.83287597656,23.25341796875q0-0.58056640625,0.205322265625-0.97705078125t0.870849609375-0.396484375q0.2548828125,0,0.63720703125,0.077880859375t0.43896484375,0.389404296875q0.1416015625,0.83544921875,0.15576171875,1.8125t0.09912109375,1.8408203125q0.32568359375-0.63720703125,0.83544921875-1.37353515625t1.1611328125-1.359375t1.416015625-1.03369140625t1.5576171875-0.41064453125q0.056640625,0,0.21240234375,0.04248046875t0.290283203125,0.120361328125t0.162841796875,0.177001953125t-0.15576171875,0.18408203125q-0.056640625,0.169921875-0.24072265625,0.205322265625t-0.32568359375,0.035400390625q-0.0849609375,0-0.26904296875-0.07080078125q-1.0478515625,0.55224609375-1.7841796875,1.5009765625t-1.20361328125,2.102783203125t-0.6796875,2.435546875t-0.21240234375,2.499267578125q0,0.60888671875-0.276123046875,0.736328125t-0.885009765625,0.12744140625q-0.32568359375,0-0.686767578125-0.07080078125t-0.502685546875-0.453125q-0.2548828125-0.80712890625-0.417724609375-1.85498046875t-0.247802734375-2.159423828125t-0.120361328125-2.187744140625t-0.035400390625-1.93994140625z M129.61287109375,27.4873046875q0-0.80712890625,0.205322265625-1.663818359375t0.6513671875-1.54345703125t1.125732421875-1.11865234375t1.642578125-0.431884765625q0.72216796875,0,1.522216796875,0.247802734375t1.465576171875,0.7080078125t1.083251953125,1.125732421875t0.417724609375,1.48681640625q0,0.9912109375-0.361083984375,1.88330078125t-1.012451171875,1.593017578125t-1.522216796875,1.1044921875t-1.890380859375,0.403564453125q-0.83544921875,0-1.45849609375-0.304443359375t-1.040771484375-0.814208984375t-0.623046875-1.20361328125t-0.205322265625-1.47265625z M131.6944140625,27.458984375q0,0.2548828125,0.077880859375,0.75048828125t0.233642578125,0.969970703125t0.403564453125,0.8212890625t0.601806640625,0.318603515625q0.75048828125-0.0849609375,1.239013671875-0.488525390625t0.79296875-0.984130859375t0.4248046875-1.26025390625t0.120361328125-1.28857421875q0-0.77880859375-0.304443359375-1.302734375t-0.998291015625-0.849609375q0,0.0283203125,0.0283203125,0.0283203125t0.0283203125-0.0283203125l-0.35400390625-0.0849609375q-0.1416015625-0.056640625-0.346923828125-0.12744140625t-0.403564453125-0.3115234375q-0.55224609375,0.1982421875-0.856689453125,0.509765625t-0.460205078125,0.757568359375t-0.191162109375,1.069091796875t-0.035400390625,1.5009765625z M139.76103027344,21.95068359375q0-0.11328125,0.134521484375-0.205322265625t0.304443359375-0.134521484375t0.346923828125-0.056640625t0.261962890625-0.01416015625q0.63720703125,0,1.09033203125,0.56640625t0.785888671875,1.451416015625t0.56640625,1.9541015625t0.446044921875,2.131103515625t0.417724609375,1.947021484375t0.460205078125,1.366455078125q0.43896484375-0.86376953125,0.800048828125-2.08154296875t0.66552734375-2.5205078125t0.5380859375-2.570068359375t0.375244140625-2.216064453125q0.056640625-0.2548828125,0.35400390625-0.318603515625t0.49560546875-0.063720703125q0.32568359375,0,0.56640625,0.092041015625t0.24072265625,0.403564453125q0,0.52392578125-0.12744140625,1.423095703125t-0.346923828125,2.017822265625t-0.509765625,2.2939453125t-0.623046875,2.230224609375t-0.69384765625,1.869140625t-0.715087890625,1.154052734375q-0.169921875,0.1982421875-0.531005859375,0.276123046875t-0.601806640625,0.077880859375q-0.83544921875,0-1.3876953125-0.43896484375l0,0.0283203125q-0.86376953125-0.80712890625-1.2744140625-1.96826171875t-0.5947265625-2.42138671875t-0.332763671875-2.50634765625t-0.502685546875-2.265625q-0.056640625-0.11328125-0.1416015625-0.332763671875t-0.1982421875-0.43896484375t-0.191162109375-0.417724609375t-0.077880859375-0.3115234375z"/><path fill="#" d=""/></svg>
